<?xml version="1.0" encoding="UTF-8"?>
<!DOCTYPE svg PUBLIC "-//W3C//DTD SVG 1.1//EN" "http://www.w3.org/Graphics/SVG/1.1/DTD/svg11.dtd">
<!-- Creator: CorelDRAW 2020 (64-Bit) -->
<svg xmlns="http://www.w3.org/2000/svg" xml:space="preserve" width="30px" height="28px" version="1.1" style="shape-rendering:geometricPrecision; text-rendering:geometricPrecision; image-rendering:optimizeQuality; fill-rule:evenodd; clip-rule:evenodd"
viewBox="0 0 5.95 5.61"
 xmlns:xlink="http://www.w3.org/1999/xlink"
 xmlns:xodm="http://www.corel.com/coreldraw/odm/2003">
 <defs>
  <style type="text/css">
   <![CDATA[
    .fil0 {fill:#4D4D4D}
    .fil1 {fill:white;fill-rule:nonzero}
   ]]>
  </style>
 </defs>
 <rect class="fil0" x="-28.6" y="-12.68" width="27.19" height="38.46"/>
 <g id="Слой_x0020_1">
  <metadata id="CorelCorpID_0Corel-Layer"/>
  <path class="fil1" d="M0.3 4.86l0.45 0c0.17,0 0.31,-0.16 0.31,-0.36l0 -1.54c0,-0.13 -0.07,-0.25 -0.16,-0.31 0.1,-1.26 0.51,-2.13 2.08,-2.13 0.9,0 1.46,0.27 1.76,0.86 0.18,0.35 0.27,0.79 0.31,1.27 -0.09,0.06 -0.15,0.18 -0.15,0.31l0 1.54c0,0.17 0.1,0.31 0.24,0.35 -0.2,0.15 -0.61,0.31 -1.45,0.31 -0.07,0 -0.14,0 -0.22,0 -0.04,-0.1 -0.13,-0.17 -0.23,-0.17l-0.37 0c-0.14,0 -0.26,0.14 -0.26,0.31 0,0.17 0.12,0.31 0.26,0.31l0.37 0c0.09,0 0.17,-0.05 0.21,-0.13 0.08,0 0.16,0 0.23,0 0.95,0 1.56,-0.19 1.8,-0.57 0.01,-0.02 0.02,-0.03 0.03,-0.05l0.14 0c0.17,0 0.3,-0.16 0.3,-0.36l0 -1.54c0,-0.2 -0.13,-0.36 -0.3,-0.36l-0.17 0c-0.05,-0.58 -0.15,-1.07 -0.37,-1.49 -0.38,-0.75 -1.08,-1.11 -2.13,-1.11 -1.05,0 -1.75,0.36 -2.14,1.11 -0.22,0.42 -0.32,0.91 -0.37,1.49l-0.17 0c-0.16,0 -0.3,0.16 -0.3,0.36l0 1.54c0,0.2 0.14,0.36 0.3,0.36z"/>
 </g>
</svg>
