<?xml version="1.0" encoding="UTF-8"?>
<!DOCTYPE svg PUBLIC "-//W3C//DTD SVG 1.1//EN" "http://www.w3.org/Graphics/SVG/1.1/DTD/svg11.dtd">
<!-- Creator: CorelDRAW 2020 (64-Bit) -->
<svg xmlns="http://www.w3.org/2000/svg" xml:space="preserve" width="25px" height="24px" version="1.1" style="shape-rendering:geometricPrecision; text-rendering:geometricPrecision; image-rendering:optimizeQuality; fill-rule:evenodd; clip-rule:evenodd"
viewBox="0 0 1.68 1.63"
 xmlns:xlink="http://www.w3.org/1999/xlink"
 xmlns:xodm="http://www.corel.com/coreldraw/odm/2003">
 <defs>
  <style type="text/css">
   <![CDATA[
    .fil0 {fill:#9174ce;fill-rule:nonzero}
   ]]>
  </style>
 </defs>
 <g id="Слой_x0020_1">
  <metadata id="CorelCorpID_0Corel-Layer"/>
  <g id="_685342_arrows.eps">
   <path class="fil0" d="M1.64 0.72l-0.52 -0.69c-0.05,-0.07 -0.13,-0.01 -0.13,0.11l0 0.23c0,0.07 -0.03,0.14 -0.08,0.14l-0.83 0c-0.04,0 -0.08,0.05 -0.08,0.13l0 0.36c0,0.07 0.04,0.14 0.08,0.14l0.83 0c0.05,0 0.08,0.05 0.08,0.13l0 0.23c0,0.11 0.08,0.17 0.13,0.1l0.52 -0.67c0.05,-0.05 0.05,-0.16 0,-0.21z"/>
  </g>
 </g>
</svg>
