<?xml version="1.0" encoding="UTF-8"?>
<!DOCTYPE svg PUBLIC "-//W3C//DTD SVG 1.1//EN" "http://www.w3.org/Graphics/SVG/1.1/DTD/svg11.dtd">
<!-- Creator: CorelDRAW 2020 (64-Bit) -->
<svg xmlns="http://www.w3.org/2000/svg" xml:space="preserve" width="13px" height="13px" version="1.1" style="shape-rendering:geometricPrecision; text-rendering:geometricPrecision; image-rendering:optimizeQuality; fill-rule:evenodd; clip-rule:evenodd"
viewBox="0 0 1.42 1.42"
 xmlns:xlink="http://www.w3.org/1999/xlink"
 xmlns:xodm="http://www.corel.com/coreldraw/odm/2003">
 <defs>
  <style type="text/css">
   <![CDATA[
    .str0 {stroke:#ffffff;stroke-width:0.09;stroke-miterlimit:22.9256}
    .fil1 {fill:none}
    .fil0 {fill:#ffffff;fill-rule:nonzero}
   ]]>
  </style>
 </defs>
 <g id="Слой_x0020_1">
  <metadata id="CorelCorpID_0Corel-Layer"/>
  <path class="fil0" d="M1.25 0.17c-0.23,-0.23 -0.59,-0.23 -0.81,0 -0.19,0.19 -0.22,0.47 -0.09,0.69 0,0 0.01,0.02 0,0.03l-0.3 0.29c-0.03,0.04 -0.05,0.08 -0.05,0.12 0,0.03 0.01,0.05 0.03,0.07l0.01 0.01c0.05,0.06 0.13,0.04 0.19,-0.02l0.3 -0.29c0.01,-0.01 0.02,0 0.02,0 0.23,0.13 0.51,0.1 0.7,-0.09 0.22,-0.22 0.22,-0.59 0,-0.81zm-0.11 0.7c-0.16,0.17 -0.43,0.17 -0.6,0 -0.16,-0.16 -0.16,-0.43 0,-0.6 0.17,-0.16 0.44,-0.16 0.6,0 0.17,0.17 0.17,0.44 0,0.6z"/>
  <path class="fil1 str0" d="M0.48 0.56l0.73 0m-0.36 -0.37l-0.01 0.74"/>
 </g>
</svg>
