<?xml version="1.0" encoding="UTF-8"?>
<!DOCTYPE svg PUBLIC "-//W3C//DTD SVG 1.1//EN" "http://www.w3.org/Graphics/SVG/1.1/DTD/svg11.dtd">
<!-- Creator: CorelDRAW 2020 (64-Bit) -->
<svg xmlns="http://www.w3.org/2000/svg" xml:space="preserve" width="13px" height="14px" version="1.1" style="shape-rendering:geometricPrecision; text-rendering:geometricPrecision; image-rendering:optimizeQuality; fill-rule:evenodd; clip-rule:evenodd"
viewBox="0 0 1.68 1.9"
 xmlns:xlink="http://www.w3.org/1999/xlink"
 xmlns:xodm="http://www.corel.com/coreldraw/odm/2003">
 <defs>
  <style type="text/css">
   <![CDATA[
    .fil0 {fill:#ffffff}
   ]]>
  </style>
 </defs>
 <g id="Слой_x0020_1">
  <metadata id="CorelCorpID_0Corel-Layer"/>
  <path class="fil0" d="M1.56 0.07c-0.13,-0.11 -0.32,-0.09 -0.43,0.04l-0.29 0.36c-0.09,0.1 -0.09,0.24 -0.03,0.35l-0.11 0.13c-0.11,-0.04 -0.25,-0.01 -0.34,0.09l-0.29 0.36c-0.11,0.13 -0.09,0.32 0.04,0.43 0.13,0.11 0.32,0.09 0.43,-0.04l0.3 -0.36c0.08,-0.1 0.09,-0.25 0.02,-0.36l0.1 -0.12c0.12,0.05 0.26,0.01 0.35,-0.09l0.3 -0.36c0.1,-0.13 0.09,-0.32 -0.05,-0.43zm-0.83 1.27l-0.3 0.36c-0.05,0.07 -0.16,0.08 -0.23,0.02 -0.07,-0.06 -0.08,-0.16 -0.02,-0.23l0.29 -0.36c0.04,-0.04 0.08,-0.06 0.13,-0.06l-0.08 0.1c-0.03,0.04 -0.02,0.1 0.02,0.13 0.04,0.04 0.1,0.03 0.13,-0.01l0.09 -0.1c0.01,0.05 0,0.11 -0.03,0.15zm0.77 -0.93l-0.3 0.36c-0.03,0.04 -0.09,0.06 -0.14,0.06l0.05 -0.07c0.03,-0.04 0.03,-0.1 -0.01,-0.13 -0.05,-0.04 -0.11,-0.03 -0.14,0.01l-0.05 0.06c-0.01,-0.05 0.01,-0.1 0.04,-0.14l0.29 -0.36c0.06,-0.07 0.16,-0.08 0.23,-0.02 0.07,0.06 0.08,0.16 0.03,0.23z"/>
 </g>
</svg>
