<?xml version="1.0" encoding="UTF-8"?>
<!DOCTYPE svg PUBLIC "-//W3C//DTD SVG 1.1//EN" "http://www.w3.org/Graphics/SVG/1.1/DTD/svg11.dtd">
<!-- Creator: CorelDRAW 2020 (64-Bit) -->
<svg xmlns="http://www.w3.org/2000/svg" xml:space="preserve" width="87px" height="118px" version="1.1" style="shape-rendering:geometricPrecision; text-rendering:geometricPrecision; image-rendering:optimizeQuality; fill-rule:evenodd; clip-rule:evenodd"
viewBox="0 0 4.56 6.19"
 xmlns:xlink="http://www.w3.org/1999/xlink"
 xmlns:xodm="http://www.corel.com/coreldraw/odm/2003">
 <defs>
  <style type="text/css">
   <![CDATA[
    .fil0 {fill:#4D4D4D}
    .fil1 {fill:#9174CE;fill-rule:nonzero}
   ]]>
  </style>
 </defs>
 <rect class="fil0" x="8.99" y="-72.09" width="68.97" height="97.55"/>
 <g id="Слой_x0020_1">
  <metadata id="CorelCorpID_0Corel-Layer"/>
  <g id="_652517_interface.eps">
   <path class="fil1" d="M2.28 6.19l-0.07 -0.08c-0.09,-0.11 -2.21,-2.6 -2.21,-3.83 0,-1.26 1.02,-2.28 2.28,-2.28 1.26,0 2.28,1.02 2.28,2.28 0,1.23 -2.12,3.72 -2.21,3.83l-0.07 0.08zm0 -6c-1.15,0 -2.09,0.94 -2.09,2.09 0,1.04 1.72,3.17 2.09,3.62 0.37,-0.45 2.1,-2.58 2.1,-3.62 0,-1.15 -0.94,-2.09 -2.1,-2.09z"/>
   <path class="fil1" d="M2.28 3.22c-0.52,0 -0.94,-0.42 -0.94,-0.94 0,-0.52 0.42,-0.94 0.94,-0.94 0.52,0 0.94,0.42 0.94,0.94 0,0.52 -0.42,0.94 -0.94,0.94zm0 -1.69c-0.42,0 -0.75,0.33 -0.75,0.75 0,0.42 0.33,0.76 0.75,0.76 0.42,0 0.76,-0.34 0.76,-0.76 0,-0.42 -0.34,-0.75 -0.76,-0.75z"/>
  </g>
 </g>
</svg>
