<?xml version="1.0" encoding="UTF-8"?>
<!DOCTYPE svg PUBLIC "-//W3C//DTD SVG 1.1//EN" "http://www.w3.org/Graphics/SVG/1.1/DTD/svg11.dtd">
<!-- Creator: CorelDRAW 2020 (64-Bit) -->
<svg xmlns="http://www.w3.org/2000/svg" xml:space="preserve" width="102px" height="102px" version="1.1" style="shape-rendering:geometricPrecision; text-rendering:geometricPrecision; image-rendering:optimizeQuality; fill-rule:evenodd; clip-rule:evenodd"
viewBox="0 0 2.81 2.81"
 xmlns:xlink="http://www.w3.org/1999/xlink"
 xmlns:xodm="http://www.corel.com/coreldraw/odm/2003">
 <defs>
  <style type="text/css">
   <![CDATA[
    .fil0 {fill:#4D4D4D}
    .fil1 {fill:#9174CE;fill-rule:nonzero}
   ]]>
  </style>
 </defs>
 <rect class="fil0" x="16.86" y="-82.49" width="68.23" height="96.5"/>
 <g id="Слой_x0020_1">
  <metadata id="CorelCorpID_0Corel-Layer"/>
  <g id="_750707_phone.eps">
   <path class="fil1" d="M2.39 0.41c-0.26,-0.26 -0.61,-0.41 -0.99,-0.41 -0.37,0 -0.72,0.15 -0.99,0.41 -0.26,0.27 -0.41,0.62 -0.41,0.99 0,0.38 0.15,0.73 0.41,0.99 0.27,0.27 0.62,0.42 0.99,0.42 0.22,0 0.42,-0.04 0.58,-0.12 0.15,-0.07 0.25,-0.18 0.3,-0.29 0.06,-0.14 0.03,-0.28 -0.09,-0.4l0 0c0,0 0,0 0.01,-0.01 0.08,-0.08 0.08,-0.19 -0.01,-0.27l-0.2 -0.2c-0.03,-0.04 -0.08,-0.07 -0.13,-0.07 -0.05,0 -0.1,0.03 -0.14,0.07l-0.1 0.1c-0.01,0 -0.01,-0.01 -0.02,-0.01 -0.01,0 -0.02,-0.01 -0.03,-0.02 -0.11,-0.06 -0.2,-0.15 -0.3,-0.26 -0.04,-0.05 -0.06,-0.1 -0.09,-0.14 0.03,-0.02 0.05,-0.05 0.08,-0.07 0.01,-0.01 0.02,-0.02 0.03,-0.03 0.08,-0.09 0.08,-0.2 0,-0.28l-0.1 -0.1c-0.01,-0.01 -0.02,-0.02 -0.03,-0.04 -0.03,-0.02 -0.05,-0.04 -0.07,-0.06 -0.04,-0.04 -0.09,-0.06 -0.14,-0.06 -0.05,0 -0.09,0.02 -0.13,0.06l-0.01 0 -0.12 0.12c-0.05,0.05 -0.08,0.11 -0.08,0.18 -0.01,0.11 0.02,0.21 0.04,0.28 0.06,0.16 0.15,0.31 0.28,0.47 0.16,0.19 0.36,0.34 0.58,0.45 0.08,0.04 0.2,0.09 0.33,0.1 0,0 0.01,0 0.02,0 0.09,0 0.16,-0.04 0.22,-0.1l0.01 0c0,-0.01 0,-0.01 0,-0.01l0.01 0c0.07,0.08 0.09,0.16 0.05,0.25 -0.06,0.16 -0.32,0.32 -0.75,0.32 -0.69,0 -1.26,-0.57 -1.26,-1.27 0,-0.69 0.57,-1.26 1.26,-1.26 0.7,0 1.27,0.57 1.27,1.26 0,0.12 -0.02,0.23 -0.05,0.34 -0.01,0.04 0.01,0.07 0.05,0.09 0.04,0.01 0.07,-0.02 0.09,-0.05 0.03,-0.12 0.05,-0.25 0.05,-0.38 0,-0.37 -0.15,-0.72 -0.42,-0.99zm-0.41 1.61c-0.03,0.03 -0.07,0.05 -0.12,0.05 -0.01,0 -0.01,0 -0.02,0 -0.1,-0.01 -0.2,-0.05 -0.27,-0.09 -0.2,-0.1 -0.38,-0.23 -0.53,-0.41 -0.12,-0.15 -0.2,-0.28 -0.26,-0.43 -0.03,-0.09 -0.04,-0.15 -0.04,-0.22 0.01,-0.04 0.02,-0.07 0.05,-0.09l0.12 -0.13c0.01,0 0.03,-0.02 0.04,-0.02 0.02,0 0.03,0.01 0.04,0.02l0 0.01c0.03,0.02 0.05,0.04 0.07,0.06 0.01,0.01 0.02,0.02 0.03,0.03l0.1 0.1c0.03,0.03 0.03,0.06 0,0.09l-0.03 0.03c-0.03,0.03 -0.06,0.06 -0.09,0.09 0,0 0,0 0,0 -0.05,0.04 -0.03,0.09 -0.03,0.1 0,0 0,0.01 0.01,0.01 0.02,0.06 0.06,0.12 0.12,0.19l0 0c0.1,0.13 0.2,0.23 0.32,0.3 0.02,0.01 0.03,0.02 0.05,0.03 0.01,0 0.02,0.01 0.03,0.01 0,0.01 0.01,0.01 0.01,0.01 0.01,0.01 0.03,0.01 0.04,0.01 0.03,0 0.05,-0.01 0.07,-0.03l0.13 -0.13c0.01,-0.01 0.02,-0.02 0.04,-0.02 0.01,0 0.03,0.01 0.04,0.02l0.2 0.2c0.02,0.03 0.02,0.06 0,0.09l-0.01 0c-0.01,0.01 -0.02,0.03 -0.04,0.04 -0.02,0.02 -0.05,0.05 -0.07,0.08z"/>
  </g>
 </g>
</svg>
