<?xml version="1.0" encoding="UTF-8"?>
<!DOCTYPE svg PUBLIC "-//W3C//DTD SVG 1.1//EN" "http://www.w3.org/Graphics/SVG/1.1/DTD/svg11.dtd">
<!-- Creator: CorelDRAW 2020 (64-Bit) -->
<svg xmlns="http://www.w3.org/2000/svg" xml:space="preserve" width="32px" height="19px" version="1.1" style="shape-rendering:geometricPrecision; text-rendering:geometricPrecision; image-rendering:optimizeQuality; fill-rule:evenodd; clip-rule:evenodd"
viewBox="0 0 0.3 0.18"
 xmlns:xlink="http://www.w3.org/1999/xlink"
 xmlns:xodm="http://www.corel.com/coreldraw/odm/2003">
 <defs>
  <style type="text/css">
   <![CDATA[
    .fil0 {fill:#4D4D4D}
    .fil1 {fill:gray;fill-rule:nonzero}
   ]]>
  </style>
 </defs>
 <rect class="fil0" x="4.2" y="-31.78" width="23.58" height="33.35"/>
 <g id="Слой_x0020_1">
  <metadata id="CorelCorpID_0Corel-Layer"/>
  <g id="_685342_arrows.eps">
   <path class="fil1" d="M0.3 0.08l-0.1 -0.08c-0.01,0 -0.02,0 -0.02,0.01l0 0.03c0,0.01 -0.01,0.02 -0.01,0.02l-0.16 0c0,0 -0.01,0 -0.01,0.01l0 0.04c0,0.01 0.01,0.01 0.01,0.01l0.16 0c0,0 0.01,0.01 0.01,0.02l0 0.02c0,0.02 0.01,0.02 0.02,0.02l0.1 -0.08c0.01,0 0.01,-0.02 0,-0.02z"/>
  </g>
 </g>
</svg>
