<?xml version="1.0" encoding="UTF-8"?>
<!DOCTYPE svg PUBLIC "-//W3C//DTD SVG 1.1//EN" "http://www.w3.org/Graphics/SVG/1.1/DTD/svg11.dtd">
<!-- Creator: CorelDRAW 2020 (64-Bit) -->
<svg xmlns="http://www.w3.org/2000/svg" xml:space="preserve" width="16px" height="16px" version="1.1" style="shape-rendering:geometricPrecision; text-rendering:geometricPrecision; image-rendering:optimizeQuality; fill-rule:evenodd; clip-rule:evenodd"
viewBox="0 0 1.94 1.94"
 xmlns:xlink="http://www.w3.org/1999/xlink"
 xmlns:xodm="http://www.corel.com/coreldraw/odm/2003">
 <defs>
  <style type="text/css">
   <![CDATA[
    .fil0 {fill:#999999}
    .fil1 {fill:black;fill-rule:nonzero}
   ]]>
  </style>
 </defs>
 <rect class="fil0" x="-142.49" y="-570.15" width="300.78" height="425.39"/>
 <g id="Слой_x0020_1">
  <metadata id="CorelCorpID_0Corel-Layer"/>
  <path class="fil1" d="M1.12 1.54c-0.01,0 -0.02,0.01 -0.02,0.02 0,0.01 0,0.01 0.01,0.02 0,-0.01 0,-0.01 0,-0.01 0,0 0,-0.01 0,-0.01 0,0 0,0 0,0 0,-0.01 0.01,-0.01 0.01,-0.01 0,0 0,0 0,0 0,0.01 0,0.01 0,0.01 0,0 0,0 0,0 0,0 0.01,0 0.01,0 0,-0.01 -0.01,-0.01 -0.01,-0.01 -0.01,0 -0.01,0 -0.01,0.01 0,0 0,0 0,0 0,0 0,0 0,0 0,0 0,0 0,0 0,0 0,0 0,0 0,0 0,0 0,0 0,-0.01 0,-0.02 0.01,-0.02 0.01,0 0.01,0.01 0.01,0.02 0,0 0,0.01 -0.01,0.01 0,0 0,0 0,0 0,0 0,0 0,0 0,0 -0.01,0 -0.01,0.01 0,0 0.01,0 0.01,0 0.01,0 0.02,-0.01 0.02,-0.02 0,-0.01 -0.01,-0.02 -0.02,-0.02z"/>
  <g>
   <path class="fil1" d="M0.98 0.62c0,0 0,0 0,0 0.19,0 0.35,0.16 0.35,0.35 0,0.2 -0.16,0.35 -0.35,0.35 -0.2,0 -0.35,-0.15 -0.35,-0.35 0,0 0,0 0,0 0,-0.19 0.15,-0.35 0.35,-0.35l0 0zm0.37 -0.46c0.24,0 0.43,0.19 0.43,0.43l0 0.76c0,0.24 -0.19,0.43 -0.43,0.43l-0.76 0c-0.24,0 -0.43,-0.19 -0.43,-0.43l0 -0.76c0,-0.24 0.19,-0.43 0.43,-0.43l0.76 0zm0.14 0.18c-0.06,0 -0.12,0.05 -0.12,0.11 0,0.06 0.06,0.11 0.12,0.11 0.06,0 0.11,-0.05 0.11,-0.11 0,-0.06 -0.05,-0.11 -0.11,-0.11zm-0.51 0.12c-0.28,0.01 -0.51,0.23 -0.51,0.51 0,0.28 0.23,0.51 0.51,0.51 0.28,0 0.51,-0.23 0.51,-0.51 0,0 0,0 0,0 0,-0.28 -0.23,-0.51 -0.51,-0.51 0,0 0,0 0,0l0 0zm0.37 -0.46l-0.76 0c-0.32,0 -0.59,0.27 -0.59,0.59l0 0.76c0,0.32 0.27,0.59 0.59,0.59l0.76 0c0.32,0 0.59,-0.27 0.59,-0.59l0 -0.76c0,-0.32 -0.27,-0.59 -0.59,-0.59l0 0z"/>
  </g>
 </g>
</svg>
