<?xml version="1.0" encoding="UTF-8"?>
<!DOCTYPE svg PUBLIC "-//W3C//DTD SVG 1.1//EN" "http://www.w3.org/Graphics/SVG/1.1/DTD/svg11.dtd">
<!-- Creator: CorelDRAW 2020 (64-Bit) -->
<svg xmlns="http://www.w3.org/2000/svg" xml:space="preserve" width="12px" height="12px" version="1.1" style="shape-rendering:geometricPrecision; text-rendering:geometricPrecision; image-rendering:optimizeQuality; fill-rule:evenodd; clip-rule:evenodd"
viewBox="0 0 0.04 0.04"
 xmlns:xlink="http://www.w3.org/1999/xlink"
 xmlns:xodm="http://www.corel.com/coreldraw/odm/2003">
 <defs>
  <style type="text/css">
   <![CDATA[
    .fil0 {fill:#4D4D4D}
    .fil1 {fill:black;fill-rule:nonzero}
   ]]>
  </style>
 </defs>
 <rect class="fil0" x="1.87" y="-14.77" width="8.25" height="11.67"/>
 <g id="Слой_x0020_1">
  <metadata id="CorelCorpID_0Corel-Layer"/>
  <g>
   <path class="fil1" d="M0.02 0.01c0,0 0,0 0,0 0,0 0.01,0.01 0.01,0.01 0,0 -0.01,0.01 -0.01,0.01 0,0 -0.01,-0.01 -0.01,-0.01 0,0 0,0 0,0 0,0 0.01,-0.01 0.01,-0.01l0 0zm0.01 -0.01c0,0 0.01,0.01 0.01,0.01l0 0.02c0,0 -0.01,0.01 -0.01,0.01l-0.02 0c0,0 -0.01,-0.01 -0.01,-0.01l0 -0.02c0,0 0.01,-0.01 0.01,-0.01l0.02 0zm0 0.01c0,0 0,0 0,0 0,0 0,0 0,0 0,0 0,0 0,0 0,0 0,0 0,0zm-0.01 0c-0.01,0 -0.01,0 -0.01,0.01 0,0.01 0,0.01 0.01,0.01 0.01,0 0.01,0 0.01,-0.01 0,0 0,0 0,0 0,-0.01 0,-0.01 -0.01,-0.01 0,0 0,0 0,0l0 0zm0.01 -0.01l-0.02 0c0,0 -0.01,0.01 -0.01,0.01l0 0.02c0,0 0.01,0.01 0.01,0.01l0.02 0c0,0 0.01,-0.01 0.01,-0.01l0 -0.02c0,0 -0.01,-0.01 -0.01,-0.01l0 0z"/>
  </g>
 </g>
</svg>
