<?xml version="1.0" encoding="UTF-8"?>
<!DOCTYPE svg PUBLIC "-//W3C//DTD SVG 1.1//EN" "http://www.w3.org/Graphics/SVG/1.1/DTD/svg11.dtd">
<!-- Creator: CorelDRAW 2020 (64-Bit) -->
<svg xmlns="http://www.w3.org/2000/svg" xml:space="preserve" width="12px" height="12px" version="1.1" style="shape-rendering:geometricPrecision; text-rendering:geometricPrecision; image-rendering:optimizeQuality; fill-rule:evenodd; clip-rule:evenodd"
viewBox="0 0 3.52 3.52"
 xmlns:xlink="http://www.w3.org/1999/xlink"
 xmlns:xodm="http://www.corel.com/coreldraw/odm/2003">
 <defs>
  <style type="text/css">
   <![CDATA[
    .fil0 {fill:#999999}
    .fil1 {fill:black;fill-rule:nonzero}
   ]]>
  </style>
 </defs>
 <rect class="fil0" x="-357.97" y="-1429.75" width="727.44" height="1028.81"/>
 <g id="Слой_x0020_1">
  <metadata id="CorelCorpID_0Corel-Layer"/>
  <path class="fil1" d="M1.76 0c-0.97,0 -1.76,0.79 -1.76,1.76 0,0.75 0.46,1.38 1.12,1.64 -0.02,-0.14 -0.03,-0.35 0,-0.51 0.04,-0.13 0.21,-0.87 0.21,-0.87 0,0 -0.05,-0.11 -0.05,-0.26 0,-0.25 0.14,-0.43 0.32,-0.43 0.15,0 0.22,0.11 0.22,0.25 0,0.15 -0.1,0.37 -0.15,0.58 -0.04,0.18 0.09,0.32 0.26,0.32 0.32,0 0.56,-0.33 0.56,-0.8 0,-0.43 -0.31,-0.72 -0.74,-0.72 -0.5,0 -0.79,0.38 -0.79,0.76 0,0.15 0.06,0.32 0.13,0.4 0.01,0.02 0.01,0.04 0.01,0.06 -0.01,0.05 -0.04,0.17 -0.05,0.19 -0.01,0.04 -0.02,0.04 -0.06,0.03 -0.22,-0.1 -0.35,-0.43 -0.35,-0.68 0,-0.56 0.4,-1.07 1.16,-1.07 0.61,0 1.08,0.44 1.08,1.02 0,0.61 -0.38,1.09 -0.91,1.09 -0.18,0 -0.35,-0.09 -0.4,-0.2 0,0 -0.09,0.34 -0.11,0.42 -0.04,0.15 -0.15,0.34 -0.22,0.46 0.16,0.05 0.34,0.08 0.52,0.08 0.97,0 1.76,-0.79 1.76,-1.76 0,-0.97 -0.79,-1.76 -1.76,-1.76z"/>
 </g>
</svg>
