<?xml version="1.0" encoding="UTF-8"?>
<!DOCTYPE svg PUBLIC "-//W3C//DTD SVG 1.1//EN" "http://www.w3.org/Graphics/SVG/1.1/DTD/svg11.dtd">
<!-- Creator: CorelDRAW 2020 (64-Bit) -->
<svg xmlns="http://www.w3.org/2000/svg" xml:space="preserve" width="30px" height="19px" version="1.1" style="shape-rendering:geometricPrecision; text-rendering:geometricPrecision; image-rendering:optimizeQuality; fill-rule:evenodd; clip-rule:evenodd"
viewBox="0 0 28.02 17.61"
 xmlns:xlink="http://www.w3.org/1999/xlink"
 xmlns:xodm="http://www.corel.com/coreldraw/odm/2003">
 <defs>
  <style type="text/css">
   <![CDATA[
    .str0 {stroke:#FEFEFE;stroke-width:0.8;stroke-miterlimit:10}
    .fil0 {fill:none;fill-rule:nonzero}
   ]]>
  </style>
 </defs>
 <g id="Слой_x0020_1">
  <metadata id="CorelCorpID_0Corel-Layer"/>
  <path class="fil0 str0" d="M6.74 11.9c1.08,0 2.04,0.57 2.58,1.42l9.19 0c0.35,-0.54 0.86,-0.97 1.47,-1.21l0 -12.05 -19.92 0 0 13.26 4.1 0c0.54,-0.85 1.49,-1.42 2.58,-1.42z"/>
  <path class="fil0 str0" d="M0.06 14.48c0,0.12 0.05,0.24 0.16,0.33 0.1,0.09 0.23,0.14 0.37,0.14l3.1 0c0,-0.42 0.08,-0.81 0.23,-1.17l-3.86 0 0 0.7z"/>
  <path class="fil0 str0" d="M9.78 14.95l8.27 0c0,-0.42 0.08,-0.81 0.23,-1.17l-8.73 0c0.15,0.36 0.23,0.75 0.23,1.17z"/>
  <path class="fil0 str0" d="M27.07 9.23c0,0.13 -0.06,0.26 -0.16,0.35 -0.11,0.09 -0.25,0.12 -0.38,0.09l-4.51 -0.9c-0.1,-0.02 -0.19,-0.07 -0.26,-0.16 -0.07,-0.08 -0.1,-0.18 -0.1,-0.28l0 -3.86c0,0 1.51,0.01 2.28,0.13 0.77,0.11 1.58,0.64 2.2,1.26 0.62,0.62 0.93,1.43 0.93,2.24l0 1.13zm-0.38 -4.1c-0.84,-0.84 -1.94,-1.57 -2.99,-1.72 -1.06,-0.16 -3.11,-0.17 -3.11,-0.17l0 8.7c0.16,-0.03 0.33,-0.04 0.5,-0.04 1.69,0 3.05,1.37 3.05,3.05l2.55 0c0.33,0 0.65,-0.12 0.9,-0.37 0.24,-0.25 0.37,-0.57 0.37,-0.89l0 -5.51c0,-1.1 -0.42,-2.21 -1.27,-3.05z"/>
  <path class="fil0 str0" d="M6.74 16.3c-0.75,0 -1.35,-0.61 -1.35,-1.35 0,-0.5 0.27,-0.94 0.68,-1.17 0.19,-0.12 0.42,-0.18 0.67,-0.18 0.24,0 0.47,0.06 0.67,0.18 0.4,0.23 0.68,0.67 0.68,1.17 0,0.74 -0.61,1.35 -1.35,1.35zm2.16 -2.81c-0.04,-0.05 -0.08,-0.11 -0.13,-0.17 -0.47,-0.59 -1.21,-0.97 -2.03,-0.97 -0.83,0 -1.56,0.38 -2.04,0.97 -0.04,0.06 -0.08,0.12 -0.13,0.17 -0.06,0.1 -0.11,0.19 -0.16,0.29 -0.18,0.35 -0.28,0.75 -0.28,1.17 0,1.44 1.17,2.6 2.61,2.6 1.44,0 2.6,-1.16 2.6,-2.6 0,-0.42 -0.1,-0.82 -0.28,-1.17 -0.04,-0.1 -0.1,-0.19 -0.16,-0.29z"/>
  <path class="fil0 str0" d="M21.09 16.3c-0.74,0 -1.35,-0.61 -1.35,-1.35 0,-0.29 0.09,-0.55 0.24,-0.77 0.15,-0.21 0.36,-0.38 0.61,-0.48 0.15,-0.06 0.32,-0.1 0.5,-0.1 0.75,0 1.35,0.6 1.35,1.35 0,0.74 -0.6,1.35 -1.35,1.35zm0 -3.95c-0.17,0 -0.34,0.01 -0.5,0.04 -0.21,0.05 -0.42,0.11 -0.61,0.2 -0.42,0.2 -0.79,0.52 -1.05,0.9 -0.28,0.42 -0.44,0.92 -0.44,1.46 0,1.44 1.16,2.6 2.6,2.6 1.44,0 2.61,-1.16 2.61,-2.6 0,-1.44 -1.17,-2.6 -2.61,-2.6z"/>
  <polygon class="fil0 str0" points="0.06,1.54 19.98,1.54 19.98,1.2 0.06,1.2 "/>
 </g>
</svg>
