<?xml version="1.0" encoding="UTF-8"?>
<!DOCTYPE svg PUBLIC "-//W3C//DTD SVG 1.1//EN" "http://www.w3.org/Graphics/SVG/1.1/DTD/svg11.dtd">
<!-- Creator: CorelDRAW 2020 (64-Bit) -->
<svg xmlns="http://www.w3.org/2000/svg" xml:space="preserve" width="30px" height="41px" version="1.1" style="shape-rendering:geometricPrecision; text-rendering:geometricPrecision; image-rendering:optimizeQuality; fill-rule:evenodd; clip-rule:evenodd"
viewBox="0 0 5.71 7.89"
 xmlns:xlink="http://www.w3.org/1999/xlink"
 xmlns:xodm="http://www.corel.com/coreldraw/odm/2003">
 <defs>
  <style type="text/css">
   <![CDATA[
    .fil0 {fill:#4D4D4D}
    .fil1 {fill:white;fill-rule:nonzero}
   ]]>
  </style>
 </defs>
 <rect class="fil0" x="-26.61" y="-1.84" width="23.21" height="32.82"/>
 <g id="Слой_x0020_1">
  <metadata id="CorelCorpID_0Corel-Layer"/>
  <g id="_750125_business.eps">
   <path class="fil1" d="M3.56 4.37c0.16,0.09 0.26,0.21 0.26,0.32 0,0.07 0.05,0.13 0.12,0.13 0.07,0 0.13,-0.06 0.13,-0.13 0,-0.33 -0.34,-0.6 -0.82,-0.7l0 -0.18c0,-0.07 -0.05,-0.13 -0.12,-0.13 -0.07,0 -0.13,0.06 -0.13,0.13l0 0.15c-0.05,-0.01 -0.1,-0.01 -0.15,-0.01 -0.05,0 -0.09,0 -0.14,0.01l0 -0.15c0,-0.07 -0.06,-0.13 -0.13,-0.13 -0.07,0 -0.13,0.06 -0.13,0.13l0 0.18c-0.48,0.1 -0.81,0.37 -0.81,0.7 0,0.33 0.33,0.61 0.81,0.7l0 0.97c-0.11,-0.03 -0.22,-0.07 -0.3,-0.12 -0.17,-0.09 -0.26,-0.21 -0.26,-0.32 0,-0.07 -0.06,-0.13 -0.13,-0.13 -0.07,0 -0.12,0.06 -0.12,0.13 0,0.33 0.33,0.6 0.81,0.7l0 0.19c0,0.07 0.06,0.12 0.13,0.12 0.07,0 0.13,-0.05 0.13,-0.12l0 -0.15c0.05,0 0.09,0 0.14,0 0.05,0 0.1,0 0.15,0l0 0.15c0,0.07 0.06,0.12 0.13,0.12 0.07,0 0.12,-0.05 0.12,-0.12l0 -0.19c0.48,-0.1 0.82,-0.37 0.82,-0.7 0,-0.33 -0.34,-0.6 -0.82,-0.7l0 -0.97c0.12,0.03 0.22,0.07 0.31,0.12zm-1.41 0.64c-0.17,-0.09 -0.26,-0.2 -0.26,-0.32 0,-0.11 0.09,-0.23 0.26,-0.32 0.08,-0.05 0.19,-0.09 0.3,-0.12l0 0.88c-0.11,-0.03 -0.22,-0.06 -0.3,-0.12zm0.7 1.39c-0.05,0 -0.09,0 -0.14,0l0 -0.97c0.05,0 0.09,0 0.14,0 0.05,0 0.1,0.01 0.15,0.01l0 0.96c-0.05,0 -0.1,0 -0.15,0zm0.71 -0.8c0.16,0.09 0.26,0.21 0.26,0.32 0,0.11 -0.1,0.23 -0.26,0.32 -0.09,0.05 -0.19,0.09 -0.31,0.12l0 -0.88c0.12,0.03 0.22,0.07 0.31,0.12zm-0.56 -0.42c-0.05,0 -0.1,0 -0.15,0 -0.05,0 -0.09,0 -0.14,-0.01l0 -0.96c0.05,0 0.09,0 0.14,0 0.05,0 0.1,0 0.15,0l0 0.97z"/>
   <path class="fil1" d="M3.58 2.55c0.05,-0.07 0.08,-0.15 0.08,-0.24 0,-0.15 -0.07,-0.27 -0.19,-0.34 0.28,-0.2 0.47,-0.52 0.47,-0.89l0 -0.69c0,-0.13 -0.07,-0.25 -0.18,-0.32 -0.11,-0.08 -0.25,-0.09 -0.37,-0.04l-0.54 0.23 -0.53 -0.23c-0.12,-0.05 -0.26,-0.04 -0.37,0.04 -0.11,0.07 -0.18,0.19 -0.18,0.32l0 0.69c0,0.37 0.18,0.69 0.46,0.89 -0.11,0.07 -0.19,0.19 -0.19,0.34 0,0.09 0.03,0.17 0.08,0.24 -1.22,0.32 -2.12,1.43 -2.12,2.76l0 1.09c0,0.82 0.67,1.49 1.49,1.49l2.73 0c0.82,0 1.49,-0.67 1.49,-1.49l0 -1.09c0,-1.33 -0.91,-2.44 -2.13,-2.76zm-0.73 -0.1l-0.41 0c-0.08,0 -0.14,-0.06 -0.14,-0.14 0,-0.08 0.06,-0.15 0.14,-0.15l0.41 0c0,0 0,0 0,0 0,0 0,0 0,0l0.41 0c0.08,0 0.15,0.07 0.15,0.15 0,0.08 -0.07,0.14 -0.15,0.14l-0.41 0zm-0.82 -1.37l0 -0.69c0,-0.04 0.02,-0.09 0.06,-0.11 0.02,-0.02 0.05,-0.02 0.07,-0.02 0.02,0 0.04,0 0.06,0.01l0.58 0.25c0.04,0.01 0.07,0.01 0.1,0l0.59 -0.25c0.04,-0.02 0.09,-0.02 0.13,0.01 0.04,0.02 0.06,0.07 0.06,0.11l0 0.69c0,0.39 -0.27,0.71 -0.63,0.8l0.19 -0.48c0.03,-0.06 0,-0.14 -0.07,-0.17 -0.06,-0.02 -0.14,0.01 -0.16,0.08l-0.16 0.38 -0.15 -0.38c-0.03,-0.07 -0.1,-0.1 -0.17,-0.08 -0.06,0.03 -0.09,0.11 -0.07,0.17l0.2 0.48c-0.36,-0.09 -0.63,-0.41 -0.63,-0.8zm3.42 5.32c0,0.68 -0.55,1.23 -1.23,1.23l-2.73 0c-0.68,0 -1.23,-0.55 -1.23,-1.23l0 -1.09c0,-1.35 1.03,-2.47 2.35,-2.59l-0.14 0.2c-0.03,0.06 -0.02,0.14 0.04,0.18 0.02,0.01 0.05,0.02 0.07,0.02 0.04,0 0.08,-0.02 0.11,-0.06l0.16 -0.25 0.17 0.25c0.02,0.04 0.06,0.06 0.11,0.06 0.02,0 0.05,-0.01 0.07,-0.02 0.06,-0.04 0.07,-0.12 0.03,-0.18l-0.13 -0.2c1.32,0.12 2.35,1.24 2.35,2.59l0 1.09z"/>
  </g>
 </g>
</svg>
