<?xml version="1.0" encoding="UTF-8"?>
<!DOCTYPE svg PUBLIC "-//W3C//DTD SVG 1.1//EN" "http://www.w3.org/Graphics/SVG/1.1/DTD/svg11.dtd">
<!-- Creator: CorelDRAW 2020 (64-Bit) -->
<svg xmlns="http://www.w3.org/2000/svg" xml:space="preserve" width="19px" height="12px" version="1.1" style="shape-rendering:geometricPrecision; text-rendering:geometricPrecision; image-rendering:optimizeQuality; fill-rule:evenodd; clip-rule:evenodd"
viewBox="0 0 0.64 0.4"
 xmlns:xlink="http://www.w3.org/1999/xlink"
 xmlns:xodm="http://www.corel.com/coreldraw/odm/2003">
 <defs>
  <style type="text/css">
   <![CDATA[
    .fil0 {fill:black;fill-rule:nonzero}
   ]]>
  </style>
 </defs>
 <g id="Слой_x0020_1">
  <metadata id="CorelCorpID_0Corel-Layer"/>
  <g>
   <path class="fil0" d="M0.32 0.03l0 -0.03 0 0 0.01 0 0.02 0 0.01 0 0.01 0 0.01 0 0.01 0.01 0.01 0 0.01 0 0.02 0.01 0.01 0 0.01 0 0.01 0.01 0.01 0 0.01 0.01 0.01 0 0.01 0.01 0.01 0 0.01 0.01 0.01 0.01 0.01 0 0.01 0.01 0.01 0.01 0 0.01 0.01 0 0.01 0.01 0.01 0.01 0.01 0.01 0 0.01 0.01 0.01 0.01 0.01 0 0.01 0.01 0.01 -0.03 0.02 0 -0.01 -0.01 -0.01 -0.01 -0.01 0 -0.01 -0.01 -0.01 -0.01 -0.01 0 0 -0.01 -0.01 -0.01 -0.01 -0.01 -0.01 0 0 -0.01 -0.01 -0.01 -0.01 -0.01 0 -0.01 -0.01 -0.01 0 -0.01 -0.01 -0.01 0 0 -0.01 -0.01 0 -0.01 -0.01 -0.01 0 -0.01 0 -0.01 -0.01 -0.01 0 -0.01 0 -0.02 0 -0.01 0 -0.01 0 -0.01 -0.01 -0.01 0 -0.01 0 0 0zm-0.28 0.17l-0.03 -0.02 0 0 0.01 -0.01 0.01 -0.01 0 -0.01 0.01 -0.01 0.01 -0.01 0 -0.01 0.01 -0.01 0.01 -0.01 0.01 0 0.01 -0.01 0.01 -0.01 0.01 -0.01 0 0 0.01 -0.01 0.01 -0.01 0.01 0 0.01 -0.01 0.01 0 0.01 -0.01 0.02 0 0.01 -0.01 0.01 0 0.01 0 0.01 -0.01 0.01 0 0.01 0 0.01 -0.01 0.01 0 0.02 0 0.01 0 0.01 0 0.01 0 0 0.03 -0.01 0 -0.01 0 -0.01 0.01 -0.01 0 -0.01 0 -0.01 0 -0.01 0 -0.01 0 -0.01 0.01 -0.01 0 -0.01 0 -0.01 0.01 -0.01 0 -0.01 0.01 -0.01 0 -0.01 0.01 -0.01 0 -0.01 0.01 -0.01 0 0 0.01 -0.01 0.01 -0.01 0 -0.01 0.01 -0.01 0.01 0 0.01 -0.01 0 -0.01 0.01 0 0.01 -0.01 0.01 -0.01 0.01 0 0.01 -0.01 0.01 0 0zm-0.04 -0.01l0.01 -0.01 0.03 0.02 -0.01 0.01 -0.03 0 0 -0.02zm0 0.02l0 -0.01 0 -0.01 0 0.02zm0.01 0.01l-0.01 -0.01 0.03 -0.02 0.01 0.02 -0.03 0.01zm0.31 0.15l0 0.03 0 0 -0.01 0 -0.01 0 -0.01 0 -0.02 0 -0.01 0 -0.01 -0.01 -0.01 0 -0.01 0 -0.01 0 -0.01 -0.01 -0.01 0 -0.01 -0.01 -0.02 0 -0.01 -0.01 -0.01 0 -0.01 -0.01 -0.01 0 -0.01 -0.01 -0.01 -0.01 0 0 -0.01 -0.01 -0.01 -0.01 -0.01 0 -0.01 -0.01 -0.01 -0.01 -0.01 -0.01 0 -0.01 -0.01 -0.01 -0.01 -0.01 0 -0.01 -0.01 -0.01 -0.01 -0.01 0.03 -0.01 0.01 0.01 0 0 0.01 0.01 0.01 0.01 0 0.01 0.01 0.01 0.01 0.01 0 0 0.01 0.01 0.01 0.01 0.01 0 0.01 0.01 0 0.01 0.01 0 0.01 0.01 0.01 0 0.01 0.01 0.01 0 0.01 0.01 0.01 0 0.01 0.01 0.01 0 0.01 0 0.01 0.01 0.01 0 0.01 0 0.01 0 0.01 0 0.01 0.01 0.01 0 0.01 0 0.01 0 0 0zm0.28 -0.16l0.03 0.01 0 0 -0.01 0.01 0 0.01 -0.01 0.01 -0.01 0.01 0 0.01 -0.01 0.01 -0.01 0.01 -0.01 0.01 -0.01 0.01 0 0 -0.01 0.01 -0.01 0.01 -0.01 0 -0.01 0.01 -0.01 0.01 -0.01 0 -0.01 0.01 -0.01 0 -0.01 0.01 -0.01 0 -0.01 0.01 -0.01 0 -0.01 0.01 -0.02 0 -0.01 0 -0.01 0 -0.01 0.01 -0.01 0 -0.01 0 -0.01 0 -0.02 0 -0.01 0 0 -0.03 0.01 0 0.01 0 0.01 0 0.01 -0.01 0.01 0 0.02 0 0.01 0 0.01 0 0.01 -0.01 0.01 0 0.01 0 0.01 -0.01 0.01 0 0 -0.01 0.01 0 0.01 -0.01 0.01 0 0.01 -0.01 0.01 0 0.01 -0.01 0.01 -0.01 0 0 0.01 -0.01 0.01 -0.01 0.01 0 0 -0.01 0.01 -0.01 0.01 -0.01 0 -0.01 0.01 -0.01 0.01 0 0 -0.01 0 0zm0.04 0l-0.01 0.01 -0.03 -0.01 0.01 -0.02 0.03 0 0 0.02zm0 -0.02l0 0.01 0 0.01 0 -0.02zm-0.01 -0.01l0.01 0.01 -0.03 0.02 -0.01 -0.01 0.03 -0.02 0 0zm0 0l0 0 0 0 0 0zm-0.43 0.01l0.03 0 0 0 0 0.01 0 0 0 0.01 0.01 0 0 0 0 0.01 0 0 0 0.01 0 0 0 0 0.01 0.01 0 0 0 0.01 0 0 0.01 0 0 0.01 0 0 0.01 0 0 0 0 0.01 0.01 0 0 0 0.01 0 0 0.01 0 0 0.01 0 0 0 0.01 0 0 0 0.01 0 0 0 0 0 0 0.04 0 0 -0.01 0 0 -0.01 -0.01 0 -0.01 0 0 0 -0.01 0 0 0 -0.01 -0.01 0 0 -0.01 0 0 -0.01 -0.01 0 0 0 -0.01 -0.01 0 0 -0.01 0 0 -0.01 -0.01 0 0 -0.01 0 0 0 -0.01 -0.01 0 0 -0.01 0 -0.01 0 0 -0.01 -0.01 0 0 0 -0.01 0 -0.01 0 0 0 -0.01 0 0zm0.12 -0.12l0 0.03 0 0 0 0 0 0 -0.01 0 0 0 -0.01 0 0 0 -0.01 0.01 0 0 0 0 -0.01 0 0 0 -0.01 0.01 0 0 0 0 -0.01 0 0 0.01 0 0 -0.01 0 0 0.01 0 0 0 0 -0.01 0.01 0 0 0 0.01 0 0 0 0 0 0.01 0 0 -0.01 0.01 0 0 0 0.01 0 0 -0.03 0 0 0 0 -0.01 0 -0.01 0 0 0 -0.01 0.01 -0.01 0 0 0 -0.01 0 0 0.01 -0.01 0 0 0 -0.01 0 0 0.01 -0.01 0 0 0.01 -0.01 0 0 0.01 0 0 -0.01 0.01 0 0 0 0.01 -0.01 0 0 0.01 0 0 -0.01 0.01 0 0 0 0.01 0 0.01 0 0 0 0.01 0 0 0 0 0zm0.13 0.12l-0.03 0 0 0 0 0 0 -0.01 -0.01 0 0 -0.01 0 0 0 -0.01 0 0 0 0 0 -0.01 -0.01 0 0 -0.01 0 0 0 0 -0.01 -0.01 0 0 0 0 0 -0.01 -0.01 0 0 0 0 0 -0.01 -0.01 0 0 -0.01 0 0 0 0 0 -0.01 -0.01 0 0 -0.01 0 0 0 -0.01 0 0 0 -0.01 0 0 -0.03 0.01 0 0.01 0 0 0 0.01 0 0.01 0 0 0 0.01 0 0 0.01 0.01 0 0 0 0.01 0.01 0 0 0.01 0 0 0.01 0.01 0 0 0 0.01 0.01 0 0 0 0.01 0.01 0 0 0.01 0 0 0.01 0.01 0 0 0 0.01 0 0 0.01 0.01 0 0.01 0 0 0 0.01 0 0.01 0 0 0 0zm-0.13 0.13l0 -0.04 0 0 0.01 0 0 0 0.01 0 0 0 0.01 0 0 0 0.01 0 0 0 0 -0.01 0.01 0 0 0 0.01 0 0 -0.01 0 0 0.01 0 0 0 0 -0.01 0 0 0.01 0 0 -0.01 0 0 0 -0.01 0.01 0 0 0 0 -0.01 0 0 0 -0.01 0 0 0 0 0.01 -0.01 0 0 0 -0.01 0.03 0 0 0.01 0 0 0 0.01 0 0.01 0 0 -0.01 0.01 0 0 0 0.01 0 0.01 -0.01 0 0 0.01 0 0 -0.01 0.01 0 0 0 0.01 -0.01 0 0 0 -0.01 0.01 0 0 -0.01 0 0 0.01 -0.01 0 0 0 -0.01 0.01 0 0 -0.01 0 0 0 -0.01 0 -0.01 0 0 0.01 -0.01 0 -0.01 0 0 0z"/>
  </g>
 </g>
</svg>
