<?xml version="1.0" encoding="UTF-8"?>
<!DOCTYPE svg PUBLIC "-//W3C//DTD SVG 1.1//EN" "http://www.w3.org/Graphics/SVG/1.1/DTD/svg11.dtd">
<!-- Creator: CorelDRAW 2020 (64-Bit) -->
<svg xmlns="http://www.w3.org/2000/svg" xml:space="preserve" width="92px" height="67px" version="1.1" style="shape-rendering:geometricPrecision; text-rendering:geometricPrecision; image-rendering:optimizeQuality; fill-rule:evenodd; clip-rule:evenodd"
viewBox="0 0 2.71 1.98"
 xmlns:xlink="http://www.w3.org/1999/xlink"
 xmlns:xodm="http://www.corel.com/coreldraw/odm/2003">
 <defs>
  <style type="text/css">
   <![CDATA[
    .fil0 {fill:#4D4D4D}
    .fil1 {fill:#9174CE;fill-rule:nonzero}
   ]]>
  </style>
 </defs>
 <rect class="fil0" x="9.48" y="-90.73" width="72.98" height="103.22"/>
 <g id="Слой_x0020_1">
  <metadata id="CorelCorpID_0Corel-Layer"/>
  <g id="_661770_envelope.eps">
   <path class="fil1" d="M2.71 1.98l-0.02 -0.01 0.02 0 0 -1.97 -2.71 0 0 1.97 0.01 0 -0.01 0.01 2.71 0zm-2.43 -0.13l0.78 -0.79 0.28 0.28 0.28 -0.28 0.81 0.79 -2.15 0zm2.34 -1.73l0 1.73 -0.05 0 -0.87 -0.86 0.89 -0.87 0.03 0zm-0.18 0l-0.82 0.8 -0.07 0.07 -0.21 0.21 -0.21 -0.21 -0.07 -0.07 -0.8 -0.8 2.18 0zm-2.35 0l0.03 0 0.87 0.87 -0.86 0.86 -0.04 0 0 -1.73z"/>
  </g>
 </g>
</svg>
