<?xml version="1.0" encoding="UTF-8"?>
<!DOCTYPE svg PUBLIC "-//W3C//DTD SVG 1.1//EN" "http://www.w3.org/Graphics/SVG/1.1/DTD/svg11.dtd">
<!-- Creator: CorelDRAW 2020 (64-Bit) -->
<svg xmlns="http://www.w3.org/2000/svg" xml:space="preserve" width="12px" height="10px" version="1.1" style="shape-rendering:geometricPrecision; text-rendering:geometricPrecision; image-rendering:optimizeQuality; fill-rule:evenodd; clip-rule:evenodd"
viewBox="0 0 18.59 15.92"
 xmlns:xlink="http://www.w3.org/1999/xlink"
 xmlns:xodm="http://www.corel.com/coreldraw/odm/2003">
 <defs>
  <style type="text/css">
   <![CDATA[
    .fil0 {fill:#939393}
   ]]>
  </style>
 </defs>
 <g id="Слой_x0020_1">
  <metadata id="CorelCorpID_0Corel-Layer"/>
  <path class="fil0" d="M8.97 15.84c0.22,0.11 0.44,0.11 0.65,-0.01l-0.65 0.01zm0 0c-4.84,-4.39 -7.47,-7.04 -7.89,-7.96 -0.92,-1.25 -1.25,-2.71 -1,-4.37 0.74,-2.61 2.58,-3.76 5.52,-3.46 0.89,0.05 2.1,0.77 3.64,2.15l0.11 0c1.53,-1.38 2.75,-2.1 3.64,-2.15 2.94,-0.3 4.77,0.85 5.51,3.46 0.26,1.66 -0.07,3.12 -0.99,4.37 -0.42,0.92 -3.05,3.57 -7.89,7.96l-0.65 0z"/>
 </g>
</svg>
