<?xml version="1.0" encoding="UTF-8"?>
<!DOCTYPE svg PUBLIC "-//W3C//DTD SVG 1.1//EN" "http://www.w3.org/Graphics/SVG/1.1/DTD/svg11.dtd">
<!-- Creator: CorelDRAW 2020 (64-Bit) -->
<svg xmlns="http://www.w3.org/2000/svg" xml:space="preserve" width="12px" height="11px" version="1.1" style="shape-rendering:geometricPrecision; text-rendering:geometricPrecision; image-rendering:optimizeQuality; fill-rule:evenodd; clip-rule:evenodd"
viewBox="0 0 8.27 7.41"
 xmlns:xlink="http://www.w3.org/1999/xlink"
 xmlns:xodm="http://www.corel.com/coreldraw/odm/2003">
 <defs>
  <style type="text/css">
   <![CDATA[
    .fil0 {fill:#939393}
   ]]>
  </style>
 </defs>
 <g id="Слой_x0020_1">
  <metadata id="CorelCorpID_0Corel-Layer"/>
  <path class="fil0" d="M5.34 0.21c0,0.86 0,1.29 -0.01,1.29 -2.17,-0.05 -3.61,0.22 -4.31,0.81 -0.57,0.44 -0.9,1.04 -0.99,1.83 -0.1,0.79 0.04,1.65 0.41,2.57 0.15,0.36 0.26,0.58 0.33,0.65 0.1,0.08 0.16,0.07 0.2,-0.02 -0.05,-0.87 -0.03,-1.45 0.07,-1.73 0.24,-0.99 0.96,-1.56 2.15,-1.7 0.95,-0.08 1.64,-0.1 2.09,-0.05 0.01,0.3 0.03,0.72 0.04,1.26 0.06,0.26 0.2,0.33 0.43,0.2 1.64,-1.64 2.45,-2.46 2.45,-2.46 0.1,-0.14 0.1,-0.26 0.01,-0.36 -1.68,-1.63 -2.5,-2.45 -2.47,-2.47 -0.23,-0.07 -0.36,-0.02 -0.4,0.18z"/>
 </g>
</svg>
