<?xml version="1.0" encoding="UTF-8"?>
<!DOCTYPE svg PUBLIC "-//W3C//DTD SVG 1.1//EN" "http://www.w3.org/Graphics/SVG/1.1/DTD/svg11.dtd">
<!-- Creator: CorelDRAW 2020 (64-Bit) -->
<svg xmlns="http://www.w3.org/2000/svg" xml:space="preserve" width="12px" height="12px" version="1.1" style="shape-rendering:geometricPrecision; text-rendering:geometricPrecision; image-rendering:optimizeQuality; fill-rule:evenodd; clip-rule:evenodd"
viewBox="0 0 3.45 3.54"
 xmlns:xlink="http://www.w3.org/1999/xlink"
 xmlns:xodm="http://www.corel.com/coreldraw/odm/2003">
 <defs>
  <style type="text/css">
   <![CDATA[
    .fil0 {fill:#4D4D4D}
    .fil1 {fill:black;fill-rule:nonzero}
   ]]>
  </style>
 </defs>
 <rect class="fil0" x="1.79" y="-14.62" width="8.42" height="11.91"/>
 <g id="Слой_x0020_1">
  <metadata id="CorelCorpID_0Corel-Layer"/>
  <path class="fil1" d="M1.77 1.41l0 0.68 0.92 0c-0.08,0.4 -0.44,0.72 -0.92,0.72 -0.57,0 -1.05,-0.48 -1.05,-1.04 0,-0.56 0.48,-1.05 1.05,-1.05 0.24,0 0.48,0.08 0.64,0.24l0.52 -0.52c-0.32,-0.24 -0.68,-0.44 -1.16,-0.44 -0.97,0 -1.77,0.8 -1.77,1.77 0,0.96 0.8,1.77 1.77,1.77 1,0 1.68,-0.73 1.68,-1.73 0,-0.12 0,-0.28 -0.04,-0.4 0.01,0 -1.64,0 -1.64,0z"/>
 </g>
</svg>
